<svg height="64" viewBox="0 0 32 32" width="64" xmlns="http://www.w3.org/2000/svg"><g transform="matrix(.37670494 0 0 .37670494 -8.320071 -14.595127)"><path d="m30.95 80.31a4.85 4.85 0 0 0 1.57-2.37 2.8 2.8 0 0 0 -1.57-3.6c-4.6-2.33-7.57 1.82-8 2.79s-1.19 2.5-.71 6 2.17 6.73 7.45 8a22.37 22.37 0 0 0 15-1.75c4.66-2.22 13.4-6.12 15.61-6.51a19.14 19.14 0 0 1 4.41-.55v-5.32a12.21 12.21 0 0 0 -11.82-6.22c-8.43.66-11.78 5-13.83 6.86s-5.86 6.24-8.41 5.47-3.27-3.92-2.37-4.89 1.61-.8 2.17 0a4.24 4.24 0 0 1 .5 2.09z"/><path d="m98.17 80.31a4.85 4.85 0 0 1 -1.57-2.37 2.8 2.8 0 0 1 1.57-3.6c4.6-2.33 7.57 1.82 8 2.79s1.19 2.5.71 6-2.17 6.73-7.45 8a22.37 22.37 0 0 1 -15-1.75c-4.66-2.22-13.4-6.12-15.61-6.51a19.14 19.14 0 0 0 -4.41-.55v-5.32a12.21 12.21 0 0 1 11.82-6.22c8.43.66 11.78 5 13.83 6.86s5.86 6.24 8.41 5.47 3.27-3.92 2.37-4.89-1.61-.8-2.17 0a4.24 4.24 0 0 0 -.5 2.09z"/></g></svg>