<svg height="64" viewBox="0 0 32 32" width="64" xmlns="http://www.w3.org/2000/svg"><g transform="matrix(.07778696064 0 0 .07778696064 -3.91346231169 -7.82692407699)"><path d="m107.644 470.877-33.011-370.257h362.734l-33.046 370.199-148.543 41.181z" fill="#e44d26"/><path d="m376.03 447.246 28.24-316.352h-148.27v349.629z" fill="#f16529"/><path d="m255.843 176.305h-113.711l1.087 12.183 11.161 125.139h101.62v-45.41h-60.09l-4.15-46.501h64.24v-45.411z" fill="#ebebeb"/><path d="m256 386.153-.199.053-50.574-13.656-3.233-36.217h-24.575-21.01l6.362 71.301 93.02 25.823.209-.058z" fill="#ebebeb"/><g fill="#fff"><path d="m255.843 313.627h55.918l-5.271 58.894-50.647 13.67v47.244l93.094-25.801.683-7.672 10.671-119.551 1.108-12.194h-12.237-93.319z"/><path d="m368.511 188.488 1.086-12.183h-113.754v28.204 17.096.111h109.542.146l.911-10.207z"/></g></g></svg>