<svg width="40" height="40" viewBox="-10 0 150 150"> class="main-nav__logo"><defs id="logo"></defs><g id="SvgjsG1095" featurekey="root" fill="#000000"></g><g id="SvgjsG1096" featurekey="container1" fill="#04a7e5" transform="matrix(2.133775554612555,0,0,2.133775554612555,0.00001570740090899435,0.008905750457231125)">   <title xmlns="http://www.w3.org/2000/svg">Untitled-1</title>   <path xmlns="http://www.w3.org/2000/svg" d="M23.11,55.78L1.69,43.41A3.39,3.39,0,0,1,0,40.48V15.75a3.39,3.39,0,0,1,1.69-2.94L23.11,0.45a3.39,3.39,0,0,1,3.39,0L47.91,12.82a3.39,3.39,0,0,1,1.69,2.94V40.48a3.39,3.39,0,0,1-1.69,2.94L26.5,55.78A3.39,3.39,0,0,1,23.11,55.78Z"></path> </g><g id="SvgjsG1097" featurekey="text1" fill="#000000" transform="matrix(4.335259769079911,0,0,4.335259769079911,26.745665261168583,-14.566469268502232)"><path d="M8.62 20.44 l-1.4 0.02 l-2.68 0 l-1.4 -0.02 l-1.16 3.58 q-0.26 0.06 -0.64 0.06 t-0.78 -0.1 l-0.04 -0.06 l4.58 -13.58 q0.34 -0.06 0.9 -0.06 t0.82 0.06 l4.58 13.58 q-0.32 0.2 -0.8 0.2 t-0.68 -0.16 t-0.34 -0.64 z M3.58 19.14 l1.16 -0.02 l2.3 0 q0.02 0 0.49 0.01 t0.67 0.01 l-1.26 -3.8 q-0.76 -2.34 -1.02 -3.34 l-0.1 0 q-0.38 1.48 -0.68 2.38 z"></path></g></svg>