<svg height="60" preserveAspectRatio="xMidYMid" viewBox="0 0 120 60" width="120" xmlns="http://www.w3.org/2000/svg"><g transform="matrix(.35792518 0 0 .35792518 14.185577 12.134144)"><path d="m0 0v85.498069h71.166023v14.332047h56.833977v-14.332047h128v-85.498069z" fill="#cb3837"/><g fill="#fff"><path d="m42.50193 14.332046h-28.169884v14.332047 42.50193h28.169884v-42.50193h14.332047v42.50193h14.332046v-42.50193-14.332047z"/><path d="m85.498069 14.332046v53.868726 2.965251 14.332046h28.664091v-14.332046h28.16989v-56.833977zm42.501931 42.501931h-13.83784v-28.169884h13.83784z"/><path d="m184.83398 14.332046h-28.16989v14.332047 42.50193h28.16989v-42.50193h14.33204v42.50193h14.33205v-42.50193h14.33205v42.50193h14.33204v-42.50193-13.34363-.988417z"/></g></g></svg>